<?xml version="1.0" standalone="no"?>
<!DOCTYPE svg PUBLIC "-//W3C//DTD SVG 20010904//EN"
 "http://www.w3.org/TR/2001/REC-SVG-20010904/DTD/svg10.dtd">
<svg version="1.0" xmlns="http://www.w3.org/2000/svg"
 width="128.000000pt" height="128.000000pt" viewBox="0 0 128.000000 128.000000"
 preserveAspectRatio="xMidYMid meet">

<g transform="translate(0.000000,128.000000) scale(0.100000,-0.100000)"
fill="#000000" stroke="none">
<path d="M569 1203 c-29 -43 -96 -134 -149 -203 -229 -296 -278 -413 -252
-588 41 -263 286 -445 544 -403 260 42 446 296 399 547 -22 123 -73 213 -251
444 -53 69 -120 160 -149 203 -34 52 -58 77 -71 77 -13 0 -37 -25 -71 -77z
m123 -111 c26 -37 89 -122 140 -189 166 -216 216 -326 205 -447 -20 -218 -184
-371 -397 -371 -213 0 -377 153 -397 371 -11 121 39 231 205 447 51 67 114
152 140 189 26 37 49 67 52 67 3 0 26 -30 52 -67z"/>
<path d="M470 783 c-95 -49 -83 -183 20 -214 53 -16 107 10 134 65 17 36 18
43 5 79 -25 71 -96 102 -159 70z m80 -78 c26 -32 -13 -81 -47 -59 -35 22 -23
74 17 74 10 0 23 -7 30 -15z"/>
<path d="M612 507 c-116 -117 -212 -219 -212 -228 0 -19 20 -39 40 -39 20 0
440 420 440 441 0 19 -20 39 -40 39 -8 0 -111 -96 -228 -213z"/>
<path d="M710 383 c-95 -49 -83 -183 20 -214 53 -16 107 10 134 65 17 36 18
43 5 79 -25 71 -96 102 -159 70z m80 -78 c15 -18 10 -45 -12 -59 -35 -22 -74
27 -48 59 16 19 44 19 60 0z"/>
</g>
</svg>
