<?xml version="1.0" standalone="no"?>
<!DOCTYPE svg PUBLIC "-//W3C//DTD SVG 20010904//EN"
 "http://www.w3.org/TR/2001/REC-SVG-20010904/DTD/svg10.dtd">
<svg version="1.0" xmlns="http://www.w3.org/2000/svg"
 width="100.000000pt" height="100.000000pt" viewBox="0 0 100.000000 100.000000"
 preserveAspectRatio="xMidYMid meet">

<g transform="translate(0.000000,100.000000) scale(0.100000,-0.100000)"
fill="#000000" stroke="none">
<path d="M430 891 c-144 -242 -144 -540 0 -782 38 -65 70 -89 70 -53 0 8 -18
45 -40 81 -135 224 -131 514 9 742 22 36 38 68 35 73 -13 21 -37 2 -74 -61z"/>
<path d="M0 500 c0 -393 0 -400 20 -400 19 0 20 7 20 140 l0 140 38 34 c34 31
37 39 37 86 0 47 -3 55 -37 86 l-38 34 0 140 c0 133 -1 140 -20 140 -20 0 -20
-7 -20 -400z"/>
<path d="M576 857 c-39 -51 -85 -157 -101 -233 -29 -137 -12 -266 54 -399 45
-91 75 -125 93 -107 8 8 5 21 -15 49 -139 202 -139 464 -1 665 24 34 25 58 4
58 -5 0 -20 -15 -34 -33z"/>
<path d="M695 779 c-83 -99 -115 -258 -80 -394 28 -104 101 -213 126 -188 8 8
2 24 -21 59 -57 82 -74 138 -74 244 0 106 17 162 73 244 29 42 33 66 11 66 -4
0 -20 -14 -35 -31z"/>
<path d="M814 702 c-53 -67 -68 -113 -68 -202 0 -73 4 -92 27 -135 30 -57 61
-95 76 -95 23 0 19 21 -14 70 -74 110 -74 210 0 320 19 29 35 56 35 61 0 19
-36 7 -56 -19z"/>
<path d="M927 611 c-39 -43 -53 -91 -43 -147 7 -37 69 -114 92 -114 28 0 26
24 -3 49 -38 32 -53 60 -53 101 0 41 15 69 53 101 17 15 27 31 23 37 -13 21
-33 13 -69 -27z"/>
</g>
</svg>
