<?xml version="1.0" standalone="no"?>
<!DOCTYPE svg PUBLIC "-//W3C//DTD SVG 20010904//EN"
 "http://www.w3.org/TR/2001/REC-SVG-20010904/DTD/svg10.dtd">
<svg version="1.0" xmlns="http://www.w3.org/2000/svg"
 width="512.000000pt" height="512.000000pt" viewBox="0 0 512.000000 512.000000"
 preserveAspectRatio="xMidYMid meet">

<g transform="translate(0.000000,512.000000) scale(0.100000,-0.100000)"
fill="#000000" stroke="none">
<path d="M1820 4845 c-204 -29 -396 -83 -577 -161 -116 -50 -172 -80 -190
-103 -19 -22 -16 -75 5 -93 36 -31 53 -29 164 23 301 139 564 199 880 199 341
0 589 -56 909 -207 90 -42 99 -44 125 -32 33 16 50 55 40 93 -5 21 -26 36
-104 75 -176 88 -363 149 -587 192 -142 28 -518 36 -665 14z"/>
<path d="M1970 4510 c-123 -9 -198 -22 -335 -57 -101 -26 -247 -78 -307 -109
-61 -32 -74 -71 -37 -118 26 -33 66 -34 136 -1 90 41 270 95 391 116 137 24
388 28 521 9 124 -17 297 -63 398 -105 48 -21 106 -40 129 -42 36 -4 44 -1 63
22 46 60 14 100 -124 156 -248 101 -557 149 -835 129z"/>
<path d="M1945 4160 c-97 -11 -203 -34 -310 -67 -109 -33 -146 -76 -114 -134
20 -38 54 -41 140 -14 163 51 273 68 444 68 178 1 276 -14 433 -65 80 -25 98
-28 122 -18 59 25 60 104 1 134 -43 23 -188 63 -288 81 -111 19 -323 27 -428
15z"/>
<path d="M1985 3794 c-491 -53 -905 -390 -1054 -858 -142 -443 -24 -925 305
-1252 353 -351 863 -455 1335 -273 238 92 473 296 608 528 126 217 187 491
162 731 -32 309 -146 548 -364 768 -168 171 -395 292 -629 337 -84 16 -289 27
-363 19z m45 -437 l0 -273 -87 8 c-103 10 -291 47 -299 59 -7 12 54 154 98
226 64 108 221 252 276 253 9 0 12 -61 12 -273z m246 238 c56 -32 154 -140
203 -222 49 -84 104 -214 94 -224 -14 -13 -203 -49 -293 -56 l-90 -6 0 272 0
272 23 -6 c12 -4 40 -18 63 -30z m374 -95 c112 -67 260 -188 260 -213 0 -12
-168 -89 -180 -82 -6 3 -10 12 -10 18 0 19 -94 208 -134 270 -19 32 -32 57
-27 57 4 0 45 -22 91 -50z m-1018 -2 c-34 -50 -101 -182 -127 -250 -10 -27
-19 -48 -21 -48 -2 0 -44 19 -94 42 l-91 41 33 34 c73 76 280 222 316 223 8 0
2 -16 -16 -42z m-222 -437 c30 -10 32 -13 26 -43 -21 -103 -36 -206 -42 -287
l-7 -91 -178 0 -179 0 0 28 c0 49 37 206 65 277 15 39 45 102 67 142 l40 71
88 -43 c49 -23 103 -47 120 -54z m1638 42 c69 -119 121 -274 138 -410 l7 -53
-181 0 -181 0 -5 58 c-13 118 -28 229 -40 287 l-12 60 115 57 c64 31 118 57
121 57 3 1 20 -25 38 -56z m-1333 -134 c50 -10 141 -24 203 -30 l112 -12 0
-143 0 -144 -241 0 -242 0 6 89 c3 49 13 130 22 180 15 78 20 91 34 86 9 -4
57 -15 106 -26z m928 -61 c9 -51 20 -132 23 -180 l7 -88 -242 0 -241 0 0 143
0 144 113 12 c62 7 158 23 213 35 54 13 102 24 105 25 3 0 13 -41 22 -91z
m-1249 -519 c6 -81 21 -184 42 -287 6 -30 4 -33 -26 -43 -17 -7 -71 -31 -120
-54 l-88 -43 -40 71 c-22 40 -52 103 -67 142 -28 71 -65 228 -65 278 l0 27
179 0 178 0 7 -91z m636 -53 l0 -143 -112 -12 c-106 -11 -273 -41 -309 -56
-14 -5 -19 8 -34 86 -9 50 -19 131 -22 180 l-6 89 242 0 241 0 0 -144z m636
57 c-3 -49 -14 -130 -23 -181 -13 -76 -19 -91 -32 -87 -54 17 -212 46 -308 56
l-113 12 0 144 0 143 241 0 242 0 -7 -87z m524 68 c0 -35 -30 -178 -51 -242
-21 -63 -89 -207 -113 -242 -12 -16 -22 -13 -133 40 l-119 58 12 60 c12 58 27
169 40 288 l5 57 180 0 c169 0 179 -1 179 -19z m-1165 -970 c-4 -3 -31 7 -60
23 -64 33 -175 147 -223 228 -44 73 -105 215 -98 227 8 12 197 50 296 59 l85
7 3 -269 c1 -148 0 -272 -3 -275z m443 508 c56 -12 105 -25 107 -29 7 -12 -51
-147 -96 -223 -70 -117 -187 -228 -266 -252 l-23 -6 0 273 0 274 88 -8 c48 -4
133 -18 190 -29z m-963 -126 c26 -69 93 -201 127 -250 16 -24 24 -43 18 -43
-35 0 -214 123 -303 209 l-48 46 88 42 c48 23 91 42 94 42 4 1 14 -20 24 -46z
m1321 8 c46 -22 84 -44 84 -48 0 -11 -68 -76 -131 -127 -49 -39 -206 -136
-220 -136 -5 0 7 25 27 55 37 58 114 212 132 264 6 17 14 31 18 31 3 0 44 -18
90 -39z"/>
<path d="M235 3586 c-95 -30 -162 -88 -204 -176 l-26 -55 0 -790 c0 -900 -5
-844 87 -941 164 -173 445 -116 529 107 17 44 19 81 19 367 l0 319 -23 21
c-31 29 -72 28 -102 -3 l-25 -24 0 -308 c0 -294 -1 -310 -21 -342 -28 -46 -56
-67 -107 -82 -77 -22 -158 18 -193 95 -18 39 -19 82 -19 786 0 704 1 747 19
786 35 77 116 117 193 95 51 -15 79 -36 107 -82 20 -32 21 -48 21 -332 0 -242
3 -303 15 -326 23 -46 66 -54 109 -20 l26 20 0 320 c0 351 -3 372 -65 454 -76
99 -225 148 -340 111z"/>
<path d="M3613 3585 c-154 -47 -241 -172 -231 -329 8 -117 71 -211 178 -267
40 -22 62 -25 205 -29 l160 -5 5 -600 c5 -546 7 -604 23 -639 31 -70 83 -123
155 -158 57 -28 77 -33 142 -33 60 0 86 5 130 26 70 33 126 89 159 159 l26 55
3 597 3 596 162 4 c146 3 166 6 205 26 66 35 119 88 149 150 37 76 39 191 5
268 -29 63 -101 136 -167 166 -47 22 -65 23 -287 26 l-238 3 -25 -25 c-32 -32
-33 -75 -2 -104 22 -21 31 -22 238 -22 187 0 219 -3 255 -19 117 -53 137 -212
36 -289 -35 -27 -39 -27 -212 -32 -191 -5 -210 -11 -247 -67 -17 -25 -18 -77
-23 -644 l-5 -617 -31 -39 c-18 -22 -51 -46 -78 -57 -41 -18 -52 -19 -94 -7
-26 7 -60 24 -76 39 -57 54 -56 40 -56 682 0 650 1 636 -61 681 -32 23 -44 24
-210 29 -172 5 -176 6 -211 32 -85 65 -91 187 -12 259 48 44 82 49 306 49 208
0 209 0 233 25 14 13 25 36 25 50 0 14 -11 37 -25 50 l-24 25 -223 -1 c-155 0
-236 -4 -265 -14z"/>
<path d="M1550 1187 c-54 -27 -48 -106 10 -134 42 -20 200 -63 295 -80 123
-23 388 -22 512 1 107 19 252 60 294 82 58 29 59 94 4 130 -25 16 -30 16 -128
-15 -168 -52 -245 -64 -427 -64 -177 0 -285 16 -448 68 -90 29 -81 28 -112 12z"/>
<path d="M1291 894 c-23 -30 -26 -61 -8 -85 39 -52 327 -148 552 -185 133 -21
405 -21 545 0 139 21 304 66 426 116 137 55 169 95 123 155 -19 23 -27 26 -63
22 -23 -2 -81 -21 -129 -42 -101 -42 -274 -88 -398 -105 -108 -16 -361 -16
-464 0 -152 22 -300 64 -442 124 -81 34 -115 34 -142 0z"/>
<path d="M1090 653 c-47 -17 -66 -78 -37 -116 25 -32 231 -125 392 -177 245
-78 445 -105 729 -97 211 5 327 21 513 72 177 47 449 163 480 204 17 22 16 62
-2 88 -25 36 -59 37 -127 2 -164 -83 -368 -151 -563 -190 -138 -27 -444 -37
-591 -20 -229 27 -439 87 -652 186 -65 30 -121 55 -123 54 -2 0 -11 -3 -19 -6z"/>
</g>
</svg>
