<?xml version="1.0" standalone="no"?>
<!DOCTYPE svg PUBLIC "-//W3C//DTD SVG 20010904//EN"
 "http://www.w3.org/TR/2001/REC-SVG-20010904/DTD/svg10.dtd">
<svg version="1.0" xmlns="http://www.w3.org/2000/svg"
 width="128.000000pt" height="128.000000pt" viewBox="0 0 128.000000 128.000000"
 preserveAspectRatio="xMidYMid meet">

<g transform="translate(0.000000,128.000000) scale(0.100000,-0.100000)"
fill="#000000" stroke="none">
<path d="M535 1266 c-83 -20 -146 -56 -211 -120 -97 -97 -143 -226 -131 -361
8 -81 37 -152 99 -236 65 -89 80 -129 86 -229 5 -94 21 -135 56 -152 14 -6 26
-22 29 -38 13 -64 103 -130 177 -130 74 0 164 66 177 131 3 16 14 31 25 35 34
10 58 63 58 126 0 94 18 154 66 221 102 143 138 261 116 388 -17 98 -56 173
-127 244 -115 115 -266 159 -420 121z m221 -82 c111 -38 195 -120 238 -237 14
-38 17 -68 14 -135 -5 -95 -28 -157 -87 -230 -37 -47 -76 -125 -86 -170 l-7
-32 -187 0 -187 0 -18 60 c-11 38 -40 90 -77 142 -33 45 -66 104 -74 132 -19
64 -19 182 0 237 36 102 122 190 224 230 60 23 180 25 247 3z m74 -907 c0 -43
-14 -47 -190 -47 -176 0 -190 4 -190 47 l0 23 190 0 190 0 0 -23z m-90 -136
c0 -23 -63 -61 -100 -61 -37 0 -100 38 -100 61 0 5 45 9 100 9 55 0 100 -4
100 -9z"/>
<path d="M610 1109 c-11 -20 -10 -25 10 -41 12 -10 33 -18 46 -18 36 0 95 -27
128 -58 34 -32 65 -96 66 -133 0 -15 8 -37 18 -49 16 -20 21 -21 41 -10 21 11
23 17 18 61 -17 140 -126 249 -266 266 -44 5 -50 3 -61 -18z"/>
<path d="M20 1065 c-17 -20 -5 -49 36 -84 40 -35 47 -37 68 -15 24 23 20 36
-22 77 -41 40 -62 46 -82 22z"/>
<path d="M1176 1041 c-28 -29 -36 -44 -32 -59 15 -45 63 -31 110 31 16 22 18
32 10 45 -19 30 -47 25 -88 -17z"/>
<path d="M10 815 c-20 -25 -7 -49 32 -59 46 -11 102 3 106 27 6 32 -17 47 -73
47 -34 0 -57 -5 -65 -15z"/>
<path d="M1140 815 c-20 -25 -7 -49 32 -59 46 -11 102 3 106 27 6 32 -17 47
-73 47 -34 0 -57 -5 -65 -15z"/>
<path d="M46 591 c-28 -29 -36 -44 -32 -59 15 -45 63 -31 110 31 16 22 18 32
10 45 -19 30 -47 25 -88 -17z"/>
<path d="M1150 615 c-17 -20 -5 -49 36 -84 40 -35 47 -37 68 -15 24 23 20 36
-22 77 -41 40 -62 46 -82 22z"/>
</g>
</svg>
