<?xml version="1.0" standalone="no"?>
<!DOCTYPE svg PUBLIC "-//W3C//DTD SVG 20010904//EN"
 "http://www.w3.org/TR/2001/REC-SVG-20010904/DTD/svg10.dtd">
<svg version="1.0" xmlns="http://www.w3.org/2000/svg"
 width="128.000000pt" height="128.000000pt" viewBox="0 0 128.000000 128.000000"
 preserveAspectRatio="xMidYMid meet">

<g transform="translate(0.000000,128.000000) scale(0.100000,-0.100000)"
fill="#000000" stroke="none">
<path d="M583 1265 c-18 -8 -42 -29 -53 -47 -19 -31 -20 -50 -20 -300 l0 -267
40 -102 c36 -92 40 -112 40 -190 0 -93 11 -119 50 -119 39 0 50 26 50 119 0
78 4 98 40 190 l40 104 -2 171 c-3 144 -5 171 -18 171 -13 0 -16 -29 -20 -180
-6 -179 -6 -180 -43 -270 -20 -49 -37 -100 -37 -112 0 -13 -4 -23 -10 -23 -5
0 -10 10 -10 23 0 12 -18 68 -40 125 l-40 103 0 260 0 261 29 29 c37 36 79 38
118 5 25 -21 29 -33 33 -98 4 -59 8 -73 23 -76 15 -3 17 5 17 70 0 87 -22 131
-75 154 -43 17 -71 17 -112 -1z m67 -940 c0 -25 -4 -45 -10 -45 -5 0 -10 20
-10 45 0 25 5 45 10 45 6 0 10 -20 10 -45z"/>
<path d="M620 1156 c0 -16 -7 -26 -22 -30 l-23 -6 23 -19 c28 -24 29 -57 2
-64 -11 -3 -20 -10 -20 -17 0 -7 9 -14 20 -17 14 -4 20 -14 20 -33 0 -19 -6
-29 -20 -33 -11 -3 -20 -10 -20 -17 0 -7 9 -14 20 -17 30 -8 28 -59 -2 -67
l-23 -6 23 -19 c25 -22 29 -63 7 -81 -23 -19 -18 -57 10 -76 23 -15 27 -15 50
0 28 19 33 57 10 76 -22 18 -18 59 8 81 l22 19 -22 6 c-31 8 -33 59 -3 67 11
3 20 10 20 17 0 7 -9 14 -20 17 -14 4 -20 14 -20 33 0 19 6 29 20 33 11 3 20
10 20 17 0 7 -9 14 -20 17 -27 7 -26 40 3 64 l22 19 -22 6 c-16 4 -23 14 -23
30 0 17 -6 24 -20 24 -14 0 -20 -7 -20 -24z m30 -456 c0 -5 -4 -10 -10 -10 -5
0 -10 5 -10 10 0 6 5 10 10 10 6 0 10 -4 10 -10z"/>
<path d="M475 508 c-11 -6 -36 -25 -55 -43 -27 -25 -47 -34 -84 -38 -31 -3
-63 -15 -91 -35 -23 -16 -62 -32 -88 -36 -74 -11 -175 -92 -149 -118 8 -8 22
-1 48 22 45 39 92 60 137 60 23 0 41 8 57 25 29 31 81 49 119 40 25 -5 33 -2
47 20 9 14 37 40 61 56 58 40 57 80 -2 47z"/>
<path d="M754 498 c-4 -6 8 -25 29 -44 30 -28 41 -32 70 -27 56 9 120 -35 136
-93 5 -19 19 -35 42 -45 19 -9 43 -26 53 -38 14 -16 31 -21 68 -21 27 0 62 -7
79 -15 31 -17 49 -13 49 10 0 17 -71 45 -116 45 -22 0 -47 9 -68 25 -18 14
-38 25 -44 25 -7 0 -19 17 -27 37 -9 21 -23 46 -33 57 -24 27 -91 55 -132 56
-19 0 -46 9 -60 20 -29 23 -36 24 -46 8z"/>
<path d="M471 386 c-12 -14 -5 -26 16 -26 15 0 18 26 4 34 -5 3 -14 0 -20 -8z"/>
<path d="M757 342 c-25 -28 -21 -69 8 -88 31 -20 53 -15 77 17 17 23 18 30 8
50 -23 44 -65 53 -93 21z m56 -28 c9 -10 -4 -34 -19 -34 -8 0 -14 9 -14 20 0
19 19 27 33 14z"/>
<path d="M334 305 c-20 -31 -15 -53 17 -77 23 -17 30 -18 50 -8 30 16 39 29
39 56 0 52 -77 73 -106 29z m64 -32 c-2 -10 -10 -18 -18 -18 -8 0 -16 8 -18
18 -2 12 3 17 18 17 15 0 20 -5 18 -17z"/>
<path d="M962 193 c2 -10 10 -18 18 -18 8 0 16 8 18 18 2 12 -3 17 -18 17 -15
0 -20 -5 -18 -17z"/>
<path d="M90 160 c-11 -11 -20 -29 -20 -40 0 -25 34 -60 58 -60 32 0 62 29 62
60 0 53 -62 78 -100 40z m56 -31 c10 -17 -13 -36 -27 -22 -12 12 -4 33 11 33
5 0 12 -5 16 -11z"/>
<path d="M1084 145 c-19 -29 -11 -60 20 -81 56 -36 117 43 70 90 -24 25 -71
20 -90 -9z m66 -28 c0 -8 -3 -17 -7 -20 -9 -9 -34 13 -27 24 8 14 34 11 34 -4z"/>
<path d="M294 129 c-10 -17 13 -36 27 -22 12 12 4 33 -11 33 -5 0 -12 -5 -16
-11z"/>
<path d="M557 102 c-36 -39 -7 -102 45 -102 24 0 58 35 58 60 0 27 -35 60 -63
60 -13 0 -31 -8 -40 -18z m58 -43 c0 -7 -8 -15 -17 -17 -18 -3 -25 18 -11 32
10 10 28 1 28 -15z"/>
<path d="M800 60 c0 -11 7 -20 15 -20 8 0 15 9 15 20 0 11 -7 20 -15 20 -8 0
-15 -9 -15 -20z"/>
</g>
</svg>
