<?xml version="1.0" standalone="no"?>
<!DOCTYPE svg PUBLIC "-//W3C//DTD SVG 20010904//EN"
 "http://www.w3.org/TR/2001/REC-SVG-20010904/DTD/svg10.dtd">
<svg version="1.0" xmlns="http://www.w3.org/2000/svg"
 width="512.000000pt" height="512.000000pt" viewBox="0 0 512.000000 512.000000"
 preserveAspectRatio="xMidYMid meet">

<g transform="translate(0.000000,512.000000) scale(0.100000,-0.100000)"
fill="#000000" stroke="none">
<path d="M110 5109 c-14 -6 -36 -20 -48 -32 -52 -49 -52 -45 -52 -512 0 -496
-1 -486 77 -532 80 -47 166 -20 210 67 23 43 23 52 23 377 l0 333 338 0 c301
0 341 2 372 18 51 25 80 74 80 135 0 64 -28 109 -84 136 -41 20 -57 21 -467
20 -257 0 -434 -4 -449 -10z"/>
<path d="M4093 5099 c-56 -27 -83 -72 -83 -136 0 -61 29 -110 80 -135 31 -16
71 -18 373 -18 l337 0 0 -333 c0 -325 0 -334 23 -377 29 -57 64 -82 124 -87
60 -5 117 26 144 77 18 32 19 65 19 476 0 441 0 441 -22 474 -13 18 -36 43
-51 54 -28 20 -40 21 -465 24 -427 2 -438 2 -479 -19z"/>
<path d="M2715 4376 c-143 -33 -238 -88 -338 -196 -116 -126 -174 -289 -164
-462 l6 -97 -227 -3 c-309 -4 -268 18 -629 -342 -256 -255 -285 -287 -315
-351 -30 -64 -33 -78 -33 -165 0 -85 3 -102 31 -160 102 -215 368 -295 564
-170 25 16 130 115 235 220 179 179 192 190 227 190 21 0 38 -3 38 -7 0 -15
-239 -935 -243 -940 -3 -2 -74 22 -159 54 -151 57 -154 58 -258 58 -95 0 -111
-3 -163 -28 -80 -40 -151 -112 -190 -194 -29 -61 -32 -77 -31 -158 0 -69 6
-104 23 -147 26 -67 103 -157 165 -193 63 -36 784 -302 842 -310 110 -15 240
32 324 116 56 56 90 124 115 229 10 41 20 79 23 83 2 5 180 -166 396 -381 447
-445 443 -442 598 -450 110 -6 180 15 261 78 72 55 121 130 144 224 14 59 15
79 5 137 -23 134 -10 119 -614 724 l-558 560 22 97 22 96 48 -43 c27 -24 75
-57 106 -72 l57 -28 390 0 390 0 58 28 c111 55 193 164 218 290 34 166 -78
364 -241 429 -50 20 -75 23 -300 26 l-245 3 -57 56 -57 57 61 55 c78 70 148
177 179 272 21 63 24 93 24 204 -1 115 -4 138 -27 197 -74 195 -224 341 -408
399 -84 27 -234 34 -315 15z m257 -324 c69 -30 141 -106 168 -178 18 -48 21
-73 18 -134 -9 -150 -95 -251 -252 -297 -98 -28 -149 -108 -125 -195 9 -36 41
-73 188 -222 109 -111 191 -185 216 -197 36 -17 68 -19 298 -19 l259 0 29 -29
c31 -32 34 -45 19 -86 -20 -52 -52 -56 -376 -53 l-294 3 -142 142 c-79 78
-156 147 -171 153 -69 25 -144 2 -188 -60 -28 -39 -152 -592 -146 -653 l4 -49
586 -586 c362 -363 588 -597 592 -612 15 -61 -47 -120 -105 -98 -14 5 -243
227 -510 493 -540 538 -524 525 -614 491 -77 -30 -87 -50 -150 -302 -31 -125
-63 -238 -71 -250 -30 -47 -50 -42 -420 96 -193 71 -360 135 -371 141 -24 12
-44 49 -44 80 0 31 44 69 80 69 16 0 133 -38 259 -85 239 -89 286 -98 341 -70
16 8 37 27 48 43 13 18 82 267 191 692 94 366 174 681 177 700 8 54 -30 119
-86 148 -41 21 -57 22 -237 22 -152 0 -202 -3 -231 -15 -23 -10 -118 -96 -257
-235 -197 -195 -225 -220 -254 -220 -43 0 -81 38 -81 82 0 29 26 58 255 288
l255 255 337 5 c386 6 388 6 431 90 30 57 25 103 -18 170 -59 92 -73 181 -45
276 30 103 104 181 205 218 60 22 169 16 232 -12z"/>
<path d="M325 3442 c-72 -45 -191 -210 -244 -337 -61 -146 -74 -213 -74 -390
0 -177 12 -241 74 -391 62 -149 206 -333 274 -350 54 -14 115 2 152 38 64 64
62 146 -4 224 -144 170 -200 321 -190 514 8 157 64 296 166 413 60 69 68 83
72 122 5 66 -1 86 -40 127 -35 38 -43 42 -97 45 -46 3 -66 0 -89 -15z"/>
<path d="M4654 3450 c-32 -13 -84 -78 -86 -108 -4 -82 3 -99 73 -179 168 -192
213 -456 120 -704 -22 -58 -79 -146 -144 -223 -66 -78 -68 -160 -4 -224 37
-36 98 -52 152 -38 68 17 212 201 274 350 62 148 74 214 74 391 0 177 -12 243
-74 390 -54 131 -182 306 -250 340 -30 16 -101 19 -135 5z"/>
<path d="M715 3217 c-16 -8 -47 -33 -68 -56 -204 -226 -230 -555 -66 -808 98
-150 201 -191 290 -116 80 68 78 163 -6 253 -81 87 -105 251 -52 365 16 33 41
74 56 90 84 88 79 191 -11 258 -33 25 -104 31 -143 14z"/>
<path d="M4290 3219 c-113 -47 -132 -176 -39 -274 85 -90 110 -254 56 -370
-16 -33 -39 -71 -52 -85 -84 -91 -86 -185 -5 -253 91 -77 196 -31 294 127 123
197 135 435 34 643 -34 68 -107 164 -149 196 -31 23 -103 31 -139 16z"/>
<path d="M84 1086 c-75 -46 -74 -38 -74 -534 0 -439 0 -439 22 -472 13 -18 36
-43 51 -54 28 -20 40 -21 464 -24 425 -3 436 -2 479 18 56 28 84 73 84 136 0
58 -26 105 -72 134 -31 19 -51 20 -375 20 l-343 0 0 333 c0 325 0 334 -23 377
-29 57 -64 82 -124 87 -38 3 -56 -1 -89 -21z"/>
<path d="M4895 1096 c-38 -17 -60 -41 -80 -89 -12 -30 -15 -92 -15 -367 l0
-330 -342 0 c-325 0 -345 -1 -376 -20 -46 -29 -72 -76 -72 -134 0 -63 28 -108
84 -136 43 -20 54 -21 479 -18 424 3 436 4 464 24 15 11 38 36 51 54 22 33 22
33 22 474 0 411 -1 444 -19 476 -35 67 -126 97 -196 66z"/>
</g>
</svg>
