<?xml version="1.0" standalone="no"?>
<!DOCTYPE svg PUBLIC "-//W3C//DTD SVG 20010904//EN"
 "http://www.w3.org/TR/2001/REC-SVG-20010904/DTD/svg10.dtd">
<svg version="1.0" xmlns="http://www.w3.org/2000/svg"
 width="128.000000pt" height="128.000000pt" viewBox="0 0 128.000000 128.000000"
 preserveAspectRatio="xMidYMid meet">

<g transform="translate(0.000000,128.000000) scale(0.100000,-0.100000)"
fill="#000000" stroke="none">
<path d="M895 1261 c-136 -61 -150 -245 -26 -326 97 -64 224 -27 272 80 24 51
24 99 0 150 -45 98 -151 139 -246 96z"/>
<path d="M254 866 c-3 -8 -4 -23 -2 -33 3 -17 21 -18 226 -23 l222 -5 -310
-379 c-170 -208 -310 -382 -310 -386 0 -7 44 -40 54 -40 3 0 64 72 137 160
l132 160 159 0 c125 0 158 -3 152 -13 -5 -6 -39 -52 -77 -100 -67 -85 -69 -89
-52 -107 10 -11 25 -20 34 -20 15 1 194 219 215 261 6 12 5 24 -4 34 -10 12
-43 15 -187 15 -102 0 -173 4 -171 9 2 5 62 82 133 170 l130 160 6 -56 c4 -30
13 -59 20 -64 8 -5 108 -8 224 -6 l210 2 3 29 c2 16 -2 32 -10 37 -7 5 -93 9
-190 9 l-178 0 0 84 c0 46 -3 91 -6 100 -5 14 -40 16 -280 16 -230 0 -276 -2
-280 -14z"/>
</g>
</svg>
