<?xml version="1.0" standalone="no"?>
<!DOCTYPE svg PUBLIC "-//W3C//DTD SVG 20010904//EN"
 "http://www.w3.org/TR/2001/REC-SVG-20010904/DTD/svg10.dtd">
<svg version="1.0" xmlns="http://www.w3.org/2000/svg"
 width="128.000000pt" height="128.000000pt" viewBox="0 0 128.000000 128.000000"
 preserveAspectRatio="xMidYMid meet">

<g transform="translate(0.000000,128.000000) scale(0.100000,-0.100000)"
fill="#000000" stroke="none">
<path d="M398 1269 c-45 -26 -5 -104 41 -80 36 20 36 62 0 81 -21 12 -20 12
-41 -1z m32 -39 c0 -5 -4 -10 -10 -10 -5 0 -10 5 -10 10 0 6 5 10 10 10 6 0
10 -4 10 -10z"/>
<path d="M940 1240 c-39 -39 -14 -100 43 -100 28 0 57 32 57 62 0 22 -38 58
-62 58 -10 0 -27 -9 -38 -20z m58 -43 c2 -12 -3 -17 -17 -17 -12 0 -21 6 -21
13 0 31 32 34 38 4z"/>
<path d="M511 1204 c-75 -32 -46 -154 36 -154 70 0 106 78 63 132 -24 31 -59
39 -99 22z m63 -37 c12 -9 17 -23 14 -42 -3 -26 -8 -30 -35 -33 -27 -3 -35 1
-45 22 -9 22 -8 29 7 46 21 23 34 25 59 7z"/>
<path d="M782 1183 c5 -26 38 -29 38 -4 0 15 -6 21 -21 21 -14 0 -19 -5 -17
-17z"/>
<path d="M785 1090 c-3 -5 -24 -10 -46 -10 -45 0 -72 -11 -109 -45 -23 -21
-29 -22 -76 -12 -43 9 -59 8 -97 -7 -52 -19 -113 -82 -123 -123 -3 -16 -7 -33
-9 -39 -2 -6 -18 -14 -36 -18 -108 -21 -199 -136 -199 -251 0 -143 114 -258
257 -259 50 -1 63 -4 61 -16 -2 -8 -19 -19 -38 -24 -49 -14 -117 -85 -126
-131 -4 -21 -14 -39 -23 -42 -38 -12 -60 -27 -70 -49 -10 -22 -16 -24 -81 -24
-63 0 -70 -2 -70 -20 0 -20 7 -20 640 -20 633 0 640 0 640 20 0 19 -7 20 -103
20 -101 0 -102 0 -131 30 -15 17 -41 37 -57 46 -20 10 -29 22 -29 40 0 31 -31
93 -59 118 -27 24 -26 30 4 71 69 89 37 245 -61 306 -25 15 -34 28 -34 47 0
17 -14 39 -45 69 -25 23 -45 45 -45 48 0 3 9 5 21 5 54 0 129 91 116 140 -3
11 1 24 9 31 20 16 17 73 -4 92 -20 19 -67 23 -77 7z m61 -42 c4 -6 -2 -18
-13 -28 -15 -12 -20 -27 -19 -62 1 -64 -30 -98 -89 -98 -42 0 -42 0 -49 -42
-8 -51 -47 -114 -76 -123 -18 -6 -30 -45 -12 -45 19 0 74 43 94 75 28 42 40
43 67 9 27 -35 28 -58 1 -51 -14 4 -20 0 -20 -13 0 -12 13 -21 43 -29 102 -27
160 -138 123 -235 -25 -66 -46 -81 -98 -68 -23 6 -45 9 -50 6 -16 -10 -7 -34
12 -34 29 0 90 -33 118 -63 13 -14 30 -42 37 -64 11 -32 11 -38 -1 -41 -8 -2
-14 -12 -14 -22 0 -12 10 -20 35 -24 19 -4 47 -18 62 -31 l28 -24 -425 0
c-424 0 -425 0 -401 19 16 14 38 20 74 20 33 0 57 6 69 17 29 26 22 35 -22 28
-34 -6 -40 -4 -40 10 0 52 85 125 145 125 24 0 25 2 25 59 l0 60 -32 -10 c-92
-26 -196 10 -249 88 -88 128 -18 309 134 343 54 12 55 13 60 53 14 105 135
168 229 119 l37 -19 12 29 c18 44 51 62 103 55 34 -5 45 -3 50 8 6 18 42 20
52 3z"/>
<path d="M367 1084 c-14 -15 -6 -34 14 -34 14 0 19 5 17 17 -3 18 -20 27 -31
17z"/>
<path d="M1040 1070 c0 -11 7 -20 15 -20 8 0 15 9 15 20 0 11 -7 20 -15 20 -8
0 -15 -9 -15 -20z"/>
<path d="M197 1073 c-14 -13 -6 -33 13 -33 13 0 20 7 20 20 0 19 -20 27 -33
13z"/>
<path d="M252 893 c5 -26 38 -29 38 -4 0 15 -6 21 -21 21 -14 0 -19 -5 -17
-17z"/>
<path d="M940 810 c0 -13 7 -20 20 -20 13 0 20 7 20 20 0 13 -7 20 -20 20 -13
0 -20 -7 -20 -20z"/>
<path d="M890 730 c0 -11 7 -20 15 -20 8 0 15 9 15 20 0 11 -7 20 -15 20 -8 0
-15 -9 -15 -20z"/>
<path d="M997 343 c-14 -13 -6 -33 13 -33 13 0 20 7 20 20 0 19 -20 27 -33 13z"/>
<path d="M180 265 c0 -8 9 -15 20 -15 11 0 20 7 20 15 0 8 -9 15 -20 15 -11 0
-20 -7 -20 -15z"/>
</g>
</svg>
