<?xml version="1.0" standalone="no"?>
<!DOCTYPE svg PUBLIC "-//W3C//DTD SVG 20010904//EN"
 "http://www.w3.org/TR/2001/REC-SVG-20010904/DTD/svg10.dtd">
<svg version="1.0" xmlns="http://www.w3.org/2000/svg"
 width="128.000000pt" height="128.000000pt" viewBox="0 0 128.000000 128.000000"
 preserveAspectRatio="xMidYMid meet">

<g transform="translate(0.000000,128.000000) scale(0.100000,-0.100000)"
fill="#000000" stroke="none">
<path d="M88 1262 c-29 -17 -58 -67 -58 -99 0 -57 82 -121 140 -108 38 8 80
55 86 97 15 92 -89 160 -168 110z m80 -79 c13 -26 4 -43 -24 -43 -39 0 -32 55
8 59 4 1 11 -7 16 -16z"/>
<path d="M805 1261 c-22 -10 -48 -28 -58 -39 -42 -47 -46 -81 -47 -437 l0
-340 -30 -44 c-91 -134 -47 -300 100 -377 50 -26 162 -26 215 1 146 72 190
260 91 389 -19 26 -26 47 -26 80 l0 45 43 3 c35 3 43 7 45 26 5 33 -15 52 -54
52 l-34 0 0 85 0 85 55 0 c42 0 60 5 76 21 18 18 19 23 6 42 -12 18 -26 23
-76 25 l-61 3 0 84 0 85 83 0 c69 0 87 3 100 18 41 46 1 72 -109 72 -78 0 -82
1 -88 24 -9 36 -55 87 -93 102 -44 19 -90 17 -138 -5z m109 -72 c53 -25 56
-46 56 -429 l0 -352 30 -34 c56 -65 63 -147 17 -215 -67 -100 -224 -98 -285 4
-44 72 -36 146 23 217 l35 42 0 362 0 363 23 20 c37 34 62 39 101 22z"/>
<path d="M850 890 c-13 -8 -15 -52 -18 -277 -3 -246 -5 -269 -22 -288 -64 -69
-6 -178 86 -161 70 14 97 98 49 154 l-25 30 0 257 c0 157 -4 264 -10 276 -12
20 -36 24 -60 9z"/>
<path d="M346 1156 c-21 -13 -49 -41 -62 -62 -21 -35 -24 -51 -24 -149 0 -96
3 -115 23 -150 54 -95 189 -114 270 -37 29 28 34 51 15 70 -18 18 -33 15 -74
-13 -50 -34 -88 -32 -125 4 -28 28 -29 33 -29 125 0 84 3 98 23 121 33 39 83
43 130 11 42 -29 57 -32 75 -14 19 19 14 42 -15 70 -56 54 -142 64 -207 24z"/>
</g>
</svg>
